<svg width="187" height="187" viewBox="0 0 187 187" fill="none" xmlns="http://www.w3.org/2000/svg">
<path fill-rule="evenodd" clip-rule="evenodd" d="M145.807 74.7279L145.459 73.46L114.477 76.8528L114.467 77.1176L145.807 74.7279Z" fill="#FBC117"/>
<path fill-rule="evenodd" clip-rule="evenodd" d="M41.0103 132.856C46.6659 161.744 46.1317 155.36 70.9358 171.508C68.6862 165.55 66.4365 159.593 64.1867 153.636C67.6937 159.072 71.2009 164.508 74.708 169.944L90.4233 175.157L107.141 167.899C111.078 161.993 115.014 156.087 118.951 150.181C116.238 156.452 113.525 162.722 110.813 168.993C137.062 149.557 135.967 156.01 144.127 125.196L112.558 127.541L112.094 139.805L76.7753 142.928L72.2581 130.535L41.0103 132.856ZM78.4351 152.526C78.1104 152.554 77.8479 152.6 77.6478 152.664C77.4475 152.729 77.2905 152.835 77.1771 152.982C77.0636 153.13 76.9812 153.331 76.9295 153.587C76.8777 153.843 76.8445 154.169 76.8295 154.565L76.6772 158.585C76.6623 158.981 76.6709 159.304 76.7036 159.553C76.7362 159.801 76.8038 159.991 76.9068 160.12C77.0098 160.249 77.1596 160.329 77.3563 160.36C77.5528 160.392 77.8135 160.394 78.1382 160.366L80.5194 160.167L80.9705 148.253L82.8105 148.099L82.3184 161.093L77.4479 161.503C76.9066 161.548 76.4638 161.531 76.1191 161.452C75.7745 161.374 75.5015 161.22 75.3004 160.991C75.0993 160.762 74.9668 160.459 74.9032 160.081C74.8396 159.703 74.8187 159.232 74.8401 158.667L74.9867 154.792C75.0077 154.24 75.0644 153.764 75.1574 153.367C75.2505 152.97 75.4068 152.64 75.6266 152.376C75.8463 152.112 76.1328 151.911 76.4856 151.774C76.8384 151.636 77.2854 151.545 77.8267 151.499L79.8651 151.328L79.8242 152.41L78.4351 152.526ZM87.2391 156.512L87.2786 155.467L88.307 155.381C88.6316 155.353 88.8942 155.307 89.0943 155.243C89.2946 155.178 89.4508 155.09 89.5629 154.979C89.675 154.868 89.7551 154.726 89.8036 154.554C89.8523 154.383 89.8812 154.171 89.8907 153.918L89.9276 152.945C89.9376 152.681 89.9249 152.46 89.8897 152.283C89.8544 152.107 89.7849 151.969 89.6806 151.87C89.5765 151.771 89.426 151.709 89.229 151.683C89.0324 151.657 88.7715 151.658 88.4468 151.686L87.6892 151.749C87.3645 151.776 87.1018 151.823 86.9019 151.887C86.7014 151.952 86.5445 152.058 86.4311 152.205C86.3177 152.352 86.2351 152.554 86.1836 152.81C86.1318 153.066 86.0986 153.392 86.0835 153.788L85.9314 157.808C85.9163 158.204 85.925 158.527 85.9577 158.776C85.9901 159.024 86.0579 159.213 86.1609 159.342C86.2639 159.472 86.4137 159.552 86.6104 159.583C86.8069 159.615 87.0676 159.617 87.3922 159.589L90.8019 159.303L90.7608 160.385L86.702 160.725C86.1607 160.771 85.7179 160.754 85.3732 160.675C85.0284 160.596 84.7556 160.443 84.5546 160.214C84.3533 159.985 84.221 159.682 84.1573 159.304C84.0937 158.926 84.0728 158.455 84.0941 157.89L84.2408 154.015C84.2617 153.462 84.3185 152.987 84.4116 152.59C84.5046 152.193 84.6609 151.863 84.8807 151.599C85.1004 151.335 85.3867 151.134 85.7395 150.997C86.0924 150.859 86.5395 150.768 87.0808 150.722L89.1372 150.55C89.6783 150.504 90.1215 150.518 90.4663 150.591C90.8113 150.664 91.0852 150.79 91.288 150.971C91.491 151.152 91.626 151.386 91.6931 151.674C91.7601 151.961 91.7861 152.298 91.7716 152.682L91.7299 153.781C91.7154 154.166 91.6637 154.509 91.5744 154.81C91.485 155.111 91.3313 155.369 91.1133 155.585C90.8955 155.801 90.6101 155.975 90.2575 156.106C89.9049 156.237 89.458 156.326 88.9168 156.371L87.2391 156.512V156.512ZM100.755 149.575L97.5075 159.818L94.8917 160.038L92.5103 150.267L94.5128 150.099L96.3044 158.823L98.9142 149.729L100.755 149.575ZM108.156 155.924C108.117 156.957 107.869 157.736 107.412 158.259C106.954 158.783 106.196 159.089 105.138 159.178L101.151 159.512L101.192 158.431L104.818 158.127C105.071 158.106 105.297 158.074 105.496 158.034C105.695 157.993 105.866 157.91 106.009 157.784C106.152 157.658 106.26 157.479 106.335 157.245C106.41 157.011 106.455 156.69 106.471 156.281C106.484 155.933 106.473 155.655 106.439 155.449C106.405 155.242 106.327 155.086 106.205 154.983C106.083 154.879 105.905 154.819 105.672 154.803C105.439 154.787 105.136 154.794 104.763 154.825L103.41 154.939C102.965 154.976 102.592 154.957 102.289 154.88C101.986 154.804 101.743 154.663 101.559 154.457C101.374 154.25 101.247 153.971 101.177 153.618C101.106 153.264 101.081 152.829 101.1 152.312C101.133 151.435 101.364 150.736 101.791 150.215C102.218 149.694 102.937 149.391 103.947 149.306L107.429 149.014L107.388 150.096L104.357 150.35C104.105 150.371 103.885 150.405 103.697 150.45C103.51 150.496 103.351 150.572 103.221 150.679C103.091 150.786 102.989 150.944 102.915 151.154C102.842 151.364 102.798 151.637 102.785 151.973C102.773 152.31 102.783 152.578 102.818 152.779C102.852 152.98 102.921 153.132 103.025 153.238C103.129 153.343 103.28 153.405 103.477 153.425C103.674 153.444 103.929 153.44 104.242 153.414L105.504 153.308C106.021 153.265 106.453 153.273 106.798 153.334C107.143 153.395 107.42 153.524 107.628 153.722C107.837 153.921 107.982 154.199 108.064 154.557C108.147 154.916 108.177 155.371 108.156 155.924Z" fill="url(#paint0_radial)"/>
<path fill-rule="evenodd" clip-rule="evenodd" d="M43.4268 43.0469C43.0124 52.5394 42.1453 50.8154 46.8997 52.8538C44.1334 53.514 44.4061 54.141 43.0147 54.949L42.5078 66.7261L61.0205 65.4091L62.7906 53.0892C84.9867 49.4508 97.8577 53.477 118.584 44.4353C131.225 38.9208 141.944 30.2962 139.949 17.3986C129.51 26.0703 123.929 17.1228 115.126 11.8427C114.599 21.4799 110.016 35.7439 94.5812 38.7176C84.9564 40.5723 54.6781 42.3897 43.4268 43.0469Z" fill="white"/>
<path fill-rule="evenodd" clip-rule="evenodd" d="M111.042 50.106L126.32 49.0041L125.969 60.7889L145.683 59.3867L146.815 35.2685L136.297 36.0087C131.561 42.7869 122.029 45.5879 111.042 50.106Z" fill="url(#paint1_radial)"/>
<path d="M59.6056 79.3568L56.9563 81.9437L55.3492 124.387L39.9365 125.738L41.9766 71.8569L75.3625 68.9143L75.3102 70.2981L93.3009 68.7068L91.2608 122.588L75.848 123.939L77.5439 79.1494L74.8771 81.7365L73.2702 124.179L57.8573 125.531L59.6056 79.3568Z" fill="white"/>
<path d="M111.267 67.3083L95.8535 68.6772L96.2423 58.4125L111.655 57.061L111.267 67.3083Z" fill="url(#paint2_radial)"/>
<path d="M75.6982 127.898L93.6715 126.307L95.7567 71.2347L111.169 69.8832L108.696 135.203L79.3078 137.801L75.6982 127.898Z" fill="url(#paint3_radial)"/>
<path d="M112.706 96.6892C112.577 100.105 117.635 101.762 127.88 101.644L127.394 114.466L130.044 111.879L130.529 99.0566L127.977 99.0862C117.731 99.2048 112.673 97.5474 112.803 94.1318L113.678 71.0274L147.064 68.0849L145.995 96.3041C146.124 92.8883 141.067 91.2309 130.821 91.3495L131.307 78.5273L128.657 81.1143L128.171 93.9541L130.724 93.9245C140.969 93.8059 146.028 95.4457 145.898 98.8789L145.023 121.966L111.637 124.908L112.706 96.6892Z" fill="white"/>
<defs>
<radialGradient id="paint0_radial" cx="0" cy="0" r="1" gradientUnits="userSpaceOnUse" gradientTransform="translate(115.716 142.3) rotate(-0.662834) scale(51.4392 24.6685)">
<stop stop-color="#FFCC29"/>
<stop offset="1" stop-color="#FBC117"/>
</radialGradient>
<radialGradient id="paint1_radial" cx="0" cy="0" r="1" gradientUnits="userSpaceOnUse" gradientTransform="translate(141.31 41.1465) rotate(-0.662831) scale(17.6142 12.6388)">
<stop stop-color="#FCC62B"/>
<stop offset="1" stop-color="#FBC117"/>
</radialGradient>
<radialGradient id="paint2_radial" cx="0" cy="0" r="1" gradientUnits="userSpaceOnUse" gradientTransform="translate(110.77 60.1583) rotate(-0.662824) scale(7.68467 5.71634)">
<stop stop-color="#FCC62B"/>
<stop offset="1" stop-color="#FBC117"/>
</radialGradient>
<radialGradient id="paint3_radial" cx="0" cy="0" r="1" gradientUnits="userSpaceOnUse" gradientTransform="translate(108.814 88.1489) rotate(-0.662837) scale(16.6457 33.7726)">
<stop stop-color="#FCC62B"/>
<stop offset="1" stop-color="#FBC117"/>
</radialGradient>
</defs>
</svg>
